<svg xmlns="http://www.w3.org/2000/svg" width="226" height="56" viewBox="0 0 226 56" role="img" aria-labelledby="title">
<title id="title">opensiro thin wordmark</title>
<svg x="0" y="0" width="56" height="56" viewBox="19 19 26 26">
<rect x="23" y="23" width="3" height="3" fill="#4488FF"/>
<rect x="38" y="23" width="3" height="3" fill="#4488FF"/>
<rect x="23" y="38" width="3" height="3" fill="#4488FF"/>
<rect x="38" y="38" width="3" height="3" fill="#4488FF"/>
<rect x="26" y="21" width="2" height="2" fill="#3366FF"/>
<rect x="36" y="21" width="2" height="2" fill="#3366FF"/>
<rect x="26" y="41" width="2" height="2" fill="#3366FF"/>
<rect x="36" y="41" width="2" height="2" fill="#3366FF"/>
<rect x="21" y="27" width="2" height="2" fill="#3366FF"/>
<rect x="21" y="33" width="2" height="2" fill="#3366FF"/>
<rect x="41" y="27" width="2" height="2" fill="#3366FF"/>
<rect x="41" y="33" width="2" height="2" fill="#3366FF"/>
<rect x="34" y="29" width="0.5" height="1" fill="#000000"/>
<rect x="32" y="29" width="0.5" height="1" fill="#000000"/>
<rect x="34" y="29" width="0.5" height="1" fill="#000000"/>
<rect x="32" y="29" width="0.5" height="1" fill="#000000"/>
<rect x="28" y="26" width="8" height="2" fill="#000000"/>
<rect x="27" y="26" width="2" height="12" fill="#000000"/>
<rect x="35" y="26" width="2" height="12" fill="#000000"/>
<rect x="28" y="31" width="8" height="2" fill="#000000"/>
<rect x="28" y="35" width="8" height="2" fill="#000000"/>
<rect x="30" y="25" width="1" height="1" fill="#000000"/>
<rect x="31" y="24" width="1" height="1" fill="#000000"/>
</svg>
<text x="68" y="27" fill="#18181b" font-family="Departure Mono, monospace" font-size="20" letter-spacing="1">opensiro</text>
<text x="68" y="44" fill="#6e6e68" font-family="Departure Mono, monospace" font-size="9">[o-pen-shi-ro]</text>
</svg>
